inDegrees=yes
name=ik_S49_A12_T02
DataType=double
version=3
OpenSimVersion=4.3-2021-08-27-4bc7ad9
endheader
time	pelvis_tilt	pelvis_list	pelvis_rotation	pelvis_tx	pelvis_ty	pelvis_tz	hip_flexion_r	hip_adduction_r	hip_rotation_r	knee_angle_r	knee_angle_r_beta	ankle_angle_r	subtalar_angle_r	mtp_angle_r	hip_flexion_l	hip_adduction_l	hip_rotation_l	knee_angle_l	knee_angle_l_beta	ankle_angle_l	subtalar_angle_l	mtp_angle_l	lumbar_extension	lumbar_bending	lumbar_rotation	arm_flex_r	arm_add_r	arm_rot_r	elbow_flex_r	pro_sup_r	wrist_flex_r	wrist_dev_r	arm_flex_l	arm_add_l	arm_rot_l	elbow_flex_l	pro_sup_l	wrist_flex_l	wrist_dev_l
0	0	0	0	0	0.9399999999999999	0	0	0	0	0	0	0	0	0	0	0	0	0	0	0	0	0	0	0	0	0	0	0	0	89.99999999963507	0	0	0	0	0	0	89.99999999869995	0	0
0.02	-0.7620537620283135	0.2324845153412372	26.81387654733948	0	0.9399999999999999	0	1.64453835300788	-0.765949086488494	-0.5527395934123099	2.565180753462524	0.04477085005670998	0	0	0	1.64453835300788	-0.765949086488494	-0.5527395934123099	2.565180753462524	0.04477085005670998	0	0	0	-0.8173888158047843	0.4186887815291296	12.76536304344938	0.2894571240502355	-2.451769187146227	-4.115089651650081	5.833990591867291	97.55109936153887	0	0	-1.095477736931842	-1.855681463662546	-3.534655849828454	6.302433581459963	101.6102172654306	0	0
0.04	-0.7594776690812447	0.2360406727058317	26.81567016650228	0	0.9399999999999999	0	1.759998826818258	-0.8183652503789159	-0.5959056268771514	2.650913794848553	0.04626717390664475	0	0	0	1.759998826818258	-0.8183652503789159	-0.5959056268771514	2.650913794848553	0.04626717390664475	0	0	0	-0.8133198077900722	0.4209821994362266	12.76298392101364	0.3134412067961722	-2.441887445170744	-4.130248087936475	5.802156455283122	97.53953651423359	0	0	-1.080486069217768	-1.845255283556494	-3.52835760164854	6.277545604924126	101.6115732195373	0	0
0.06	-0.7763863135638178	0.2412192401760163	26.9706984779425	0	0.9399999999999999	0	4.094460468097497	-1.871858170684423	-1.447399426376249	4.833284015340594	0.0843567197517055	0	0	0	4.094460468097497	-1.871858170684423	-1.447399426376249	4.833284015340594	0.0843567197517055	0	0	0	-0.805214570908696	0.4101326428135993	12.58732329376613	0.3506512502784929	-2.440101972782827	-4.151443198158547	5.743096271027086	97.58103196955307	0	0	-1.017545241079192	-1.841810311781517	-3.576067409104628	6.185325921622828	101.665817437499	0	0
0.08	-0.758877393164016	0.2597483935788479	27.00652060445352	0	0.9399999999999999	0	4.501337389940445	-2.034233422363725	-1.591539924296602	5.115325913209695	0.08927927949809487	0	0	0	4.501337389940445	-2.034233422363725	-1.591539924296602	5.115325913209695	0.08927927949809487	0	0	0	-0.7795154606907978	0.418581646911068	12.5389505710317	0.2958845082889828	-2.441903871709155	-4.219426780751656	5.723063860682968	97.6258355283549	0	0	-1.080061073012972	-1.849384819641533	-3.563521402014237	6.177629361278414	101.6659007406674	0	0
0.1	-0.7849314716833145	0.2551297605440024	27.10417471971715	0	0.9399999999999999	0	6.045943057441725	-2.70090064987945	-2.12504165041942	6.645931271572888	0.1159933825502003	0	0	0	6.045943057441725	-2.70090064987945	-2.12504165041942	6.645931271572888	0.1159933825502003	0	0	0	-0.7868193016530363	0.4071427689284518	12.43911880147489	0.3202768474495223	-2.436116147869997	-4.232631146676106	5.918507666214034	97.59895183074534	0	0	-1.046669953477963	-1.84815271964121	-3.558226993348213	6.363343741127417	101.6462618025731	0	0
0.12	-0.7755475933793784	0.2670910189843748	27.26029571945967	0	0.9399999999999999	0	7.505699283496988	-3.274309486888816	-2.616772965427897	7.975807223610697	0.1392040965563543	0	0	0	7.505699283496988	-3.274309486888816	-2.616772965427897	7.975807223610697	0.1392040965563543	0	0	0	-0.7729636108669569	0.4200899930317704	12.26807928960942	0.317894595492008	-2.437294587807529	-4.204119415029649	5.769164850870296	97.58304977391791	0	0	-1.057697974346516	-1.816479309927614	-3.518364878754783	6.211152170430277	101.6119674327698	0	0
0.14	-0.7716159801399134	0.2697078189300781	27.25652584384583	0	0.9399999999999999	0	7.600682240338582	-3.310504544218163	-2.648267924467596	8.061137001593869	0.1406933821321564	0	0	0	7.600682240338582	-3.310504544218163	-2.648267924467596	8.061137001593869	0.1406933821321564	0	0	0	-0.7677534321112811	0.4205010711602453	12.25718134067967	0.3199734142989481	-2.429069237859919	-4.192283142731396	5.78192045953833	97.56182841924846	0	0	-1.069847363324077	-1.818642883031272	-3.533262727148055	6.232628619698314	101.5942295571378	0	0
0.16	-0.7716008617983477	0.2747473283488019	27.26038224909195	0	0.9399999999999999	0	7.860105925975662	-3.405303952088194	-2.733634358019893	8.284196842453536	0.1445865107841322	0	0	0	7.860105925975662	-3.405303952088194	-2.733634358019893	8.284196842453536	0.1445865107841322	0	0	0	-0.7643932954815781	0.4253433868281093	12.22352899462925	0.3529611104014264	-2.429223325769695	-4.214850325842042	5.746210713861455	97.59565797404581	0	0	-1.065667561577416	-1.811653922423214	-3.561989049136122	6.241287380110907	101.6128959996669	0	0
0.18	-0.7700902217649711	0.2708472947661669	27.25860358357524	0	0.9399999999999999	0	7.933425413852824	-3.438659738344041	-2.758456109919575	8.369481926306852	0.146075016300212	0	0	0	7.933425413852824	-3.438659738344041	-2.758456109919575	8.369481926306852	0.146075016300212	0	0	0	-0.7648112872774865	0.4214479024518273	12.21656444660002	0.3494380350133774	-2.419649123817313	-4.214112415454986	5.794398821240756	97.58787012582621	0	0	-1.047908312289185	-1.809805355985105	-3.565749915684856	6.26761126831906	101.6202334183919	0	0
0.2	-0.7712360308665054	0.2786043702835428	27.31878225895969	0	0.9399999999999999	0	8.216514768370386	-3.538793218224845	-2.850578009224004	8.610193486200437	0.1502762255679666	0	0	0	8.216514768370386	-3.538793218224845	-2.850578009224004	8.610193486200437	0.1502762255679666	0	0	0	-0.7617355885169897	0.4294869641183048	12.15569489132892	0.3559923150829427	-2.448392181973949	-4.189723255315553	5.75482445737826	97.54787932506213	0	0	-1.045939378908796	-1.815160182534183	-3.561548043490027	6.23125964278636	101.5945171620805	0	0
0.22	-0.7605615531051575	0.278827200347297	27.32962293105933	0	0.9399999999999999	0	8.263244323473229	-3.559783332867096	-2.866460789479217	8.661780314782266	0.1511765855773814	0	0	0	8.263244323473229	-3.559783332867096	-2.866460789479217	8.661780314782266	0.1511765855773814	0	0	0	-0.7518915428310519	0.4245071693003369	12.15234678300204	0.352459601844724	-2.420253356229469	-4.211307448030973	5.760905881721189	97.56252554001189	0	0	-1.04647746749117	-1.822037828932417	-3.570658075983525	6.223170880809567	101.6356976100148	0	0
0.24	-0.7520269213610107	0.2760679931525814	27.48980927436221	0	0.9399999999999999	0	9.364787230778129	-3.975683408002942	-3.22429536848214	9.739441760219794	0.1699853260220675	0	0	0	9.364787230778129	-3.975683408002942	-3.22429536848214	9.739441760219794	0.1699853260220675	0	0	0	-0.7414216455137265	0.4235715097258041	11.98224196196757	0.36279252795989	-2.423898437977711	-4.181351398120658	5.726336617799142	97.51839419212436	0	0	-1.028989732368477	-1.823717698084266	-3.576118284544689	6.14498945428449	101.6372273387181	0	0
